<svg width="1929" height="838" viewBox="0 0 1929 838" fill="none" xmlns="http://www.w3.org/2000/svg">
<rect width="1929" height="838" rx="20" fill="#1C1D27"/>
<path d="M842.28 698H837.48V658.4H842.28V698ZM868.621 667.4C872.021 667.4 874.821 668.38 877.021 670.34C879.221 672.3 880.321 675.12 880.321 678.8V698H875.521V680.48C875.521 677.36 874.841 675.1 873.481 673.7C872.161 672.3 870.381 671.6 868.141 671.6C866.541 671.6 865.041 671.96 863.641 672.68C862.241 673.36 861.081 674.5 860.161 676.1C859.281 677.66 858.841 679.64 858.841 682.04V698H854.041V668H858.241L858.541 672.68C859.541 670.88 860.921 669.56 862.681 668.72C864.441 667.84 866.421 667.4 868.621 667.4ZM901.389 698.6C898.509 698.6 895.909 698.04 893.589 696.92C891.269 695.76 889.569 694.06 888.489 691.82L892.389 689.12C893.069 690.88 894.249 692.2 895.929 693.08C897.609 693.96 899.589 694.4 901.869 694.4C904.229 694.4 906.029 693.98 907.269 693.14C908.509 692.3 909.129 691.24 909.129 689.96C909.129 688.8 908.549 687.88 907.389 687.2C906.229 686.48 904.189 685.86 901.269 685.34C898.389 684.82 896.109 684.2 894.429 683.48C892.749 682.72 891.529 681.78 890.769 680.66C890.009 679.5 889.629 678.08 889.629 676.4C889.629 674.76 890.109 673.26 891.069 671.9C892.029 670.54 893.409 669.46 895.209 668.66C897.009 667.82 899.089 667.4 901.449 667.4C904.649 667.4 907.209 668 909.129 669.2C911.089 670.36 912.489 672.16 913.329 674.6L909.249 677C908.609 675.08 907.629 673.7 906.309 672.86C905.029 672.02 903.409 671.6 901.449 671.6C899.489 671.6 897.829 672.04 896.469 672.92C895.109 673.8 894.429 674.82 894.429 675.98C894.429 677.3 895.009 678.32 896.169 679.04C897.369 679.76 899.489 680.38 902.529 680.9C906.689 681.58 909.629 682.6 911.349 683.96C913.069 685.32 913.929 687.24 913.929 689.72C913.929 691.44 913.409 692.98 912.369 694.34C911.369 695.66 909.909 696.7 907.989 697.46C906.109 698.22 903.909 698.6 901.389 698.6ZM935.49 667.4C940.01 667.4 943.55 668.78 946.11 671.54C948.71 674.3 950.01 678.12 950.01 683C950.01 687.88 948.71 691.7 946.11 694.46C943.55 697.22 940.01 698.6 935.49 698.6C930.97 698.6 927.41 697.22 924.81 694.46C922.25 691.7 920.97 687.88 920.97 683C920.97 678.12 922.25 674.3 924.81 671.54C927.41 668.78 930.97 667.4 935.49 667.4ZM935.49 671.54C932.45 671.54 930.07 672.56 928.35 674.6C926.63 676.64 925.77 679.44 925.77 683C925.77 686.56 926.63 689.36 928.35 691.4C930.07 693.44 932.45 694.46 935.49 694.46C938.53 694.46 940.91 693.44 942.63 691.4C944.35 689.36 945.21 686.56 945.21 683C945.21 679.44 944.35 676.64 942.63 674.6C940.91 672.56 938.53 671.54 935.49 671.54ZM994.194 667.4C996.194 667.4 998.054 667.82 999.774 668.66C1001.53 669.46 1002.95 670.72 1004.03 672.44C1005.11 674.16 1005.65 676.28 1005.65 678.8V698H1000.85V679.28C1000.85 676.68 1000.19 674.76 998.874 673.52C997.594 672.24 995.894 671.6 993.774 671.6C992.174 671.6 990.694 672 989.334 672.8C988.014 673.56 986.934 674.7 986.094 676.22C985.294 677.7 984.894 679.48 984.894 681.56V698H980.094V679.28C980.094 676.68 979.434 674.76 978.114 673.52C976.834 672.24 975.134 671.6 973.014 671.6C971.574 671.6 970.174 671.98 968.814 672.74C967.454 673.46 966.334 674.6 965.454 676.16C964.574 677.72 964.134 679.66 964.134 681.98V698H959.334V668H963.534L963.834 672.68C964.874 670.92 966.234 669.6 967.914 668.72C969.634 667.84 971.474 667.4 973.434 667.4C975.634 667.4 977.654 667.9 979.494 668.9C981.374 669.9 982.794 671.36 983.754 673.28C984.634 671.36 986.074 669.9 988.074 668.9C990.074 667.9 992.114 667.4 994.194 667.4ZM1031.1 667.4C1034.5 667.4 1037.3 668.38 1039.5 670.34C1041.7 672.3 1042.8 675.12 1042.8 678.8V698H1038V680.48C1038 677.36 1037.32 675.1 1035.96 673.7C1034.64 672.3 1032.86 671.6 1030.62 671.6C1029.02 671.6 1027.52 671.96 1026.12 672.68C1024.72 673.36 1023.56 674.5 1022.64 676.1C1021.76 677.66 1021.32 679.64 1021.32 682.04V698H1016.52V668H1020.72L1021.02 672.68C1022.02 670.88 1023.4 669.56 1025.16 668.72C1026.92 667.84 1028.9 667.4 1031.1 667.4ZM1056.07 662.24C1054.99 662.24 1054.11 661.92 1053.43 661.28C1052.79 660.6 1052.47 659.72 1052.47 658.64C1052.47 657.56 1052.79 656.7 1053.43 656.06C1054.11 655.38 1054.99 655.04 1056.07 655.04C1057.15 655.04 1058.01 655.38 1058.65 656.06C1059.33 656.7 1059.67 657.56 1059.67 658.64C1059.67 659.72 1059.33 660.6 1058.65 661.28C1058.01 661.92 1057.15 662.24 1056.07 662.24ZM1058.47 698H1053.67V668H1058.47V698ZM1094.21 694.52C1095.01 694.52 1095.81 694.42 1096.61 694.22L1096.31 698C1095.19 698.4 1093.99 698.6 1092.71 698.6C1091.15 698.6 1089.91 698.26 1088.99 697.58C1088.11 696.9 1087.55 695.76 1087.31 694.16C1086.39 695.56 1085.03 696.66 1083.23 697.46C1081.47 698.22 1079.61 698.6 1077.65 698.6C1074.69 698.6 1072.25 697.92 1070.33 696.56C1068.41 695.16 1067.45 693.16 1067.45 690.56C1067.45 688.28 1068.45 686.32 1070.45 684.68C1072.45 683 1075.35 681.84 1079.15 681.2L1087.13 679.88V678.2C1087.13 676.2 1086.51 674.6 1085.27 673.4C1084.03 672.2 1082.31 671.6 1080.11 671.6C1078.11 671.6 1076.37 672.08 1074.89 673.04C1073.45 674 1072.33 675.42 1071.53 677.3L1067.99 674.72C1068.79 672.48 1070.27 670.7 1072.43 669.38C1074.63 668.06 1077.19 667.4 1080.11 667.4C1083.67 667.4 1086.53 668.26 1088.69 669.98C1090.85 671.7 1091.93 674.24 1091.93 677.6V692.36C1091.93 693.08 1092.11 693.62 1092.47 693.98C1092.83 694.34 1093.41 694.52 1094.21 694.52ZM1077.89 694.4C1080.41 694.4 1082.57 693.8 1084.37 692.6C1086.21 691.4 1087.13 689.84 1087.13 687.92V683.78L1080.41 685.04C1077.73 685.52 1075.73 686.22 1074.41 687.14C1073.09 688.02 1072.43 689.16 1072.43 690.56C1072.43 691.8 1072.91 692.76 1073.87 693.44C1074.83 694.08 1076.17 694.4 1077.89 694.4Z" fill="url(#paint0_linear)"/>
<path fill-rule="evenodd" clip-rule="evenodd" d="M959.52 319H968.334L1019.9 431.827H1010.36L963.713 328.306L917.209 431.827H907.513L959.519 319.001H959.52L959.52 319ZM826.42 319H834.353V423.893H900.461V431.826H834.353V431.827H826.42V431.826H826.419V423.893H826.42V319ZM718 374.533H725.933V374.534H790.279V383.348H725.933V431.827H718V383.348V374.534V374.533ZM718 326.934V319.001H790.279V326.934H718ZM1111.13 326.934H1070.58V431.827H1061.77V326.934H1022.1V319.882H1111.13V326.934ZM1136.69 319V326.933H1210.73V319H1136.69ZM1136.69 378.058V370.125H1210.73V378.058H1136.69ZM1136.69 423.893V431.826H1210.73V423.893H1136.69Z" fill="url(#paint1_linear)"/>
<path d="M806.34 504.309L807.242 505.293C805.036 507.408 802.667 508.465 800.133 508.465C797.818 508.465 796.004 507.663 794.691 506.059C793.397 504.454 792.75 502.477 792.75 500.125C792.75 497.773 793.443 495.859 794.828 494.383C796.232 492.888 797.982 492.141 800.078 492.141C801.518 492.141 802.685 492.533 803.578 493.316C803.815 493.517 803.97 493.617 804.043 493.617C804.225 493.617 804.362 493.18 804.453 492.305H805.465C805.41 493.945 805.501 495.686 805.738 497.527L804.453 497.746C804.253 496.579 803.952 495.704 803.551 495.121C802.822 494.046 801.646 493.508 800.023 493.508C798.273 493.508 796.87 494.146 795.812 495.422C794.755 496.68 794.227 498.238 794.227 500.098C794.227 500.699 794.281 501.301 794.391 501.902C794.5 502.486 794.691 503.096 794.965 503.734C795.238 504.372 795.585 504.938 796.004 505.43C796.441 505.922 797.016 506.323 797.727 506.633C798.438 506.943 799.24 507.098 800.133 507.098C802.156 507.098 804.225 506.168 806.34 504.309ZM808.828 502.039C808.828 500.289 809.43 498.794 810.633 497.555C811.836 496.315 813.495 495.695 815.609 495.695C817.76 495.695 819.428 496.324 820.613 497.582C821.798 498.84 822.391 500.326 822.391 502.039C822.391 503.753 821.798 505.238 820.613 506.496C819.428 507.754 817.76 508.383 815.609 508.383C813.495 508.383 811.836 507.763 810.633 506.523C809.43 505.266 808.828 503.771 808.828 502.039ZM811.727 498.539C810.779 499.505 810.305 500.672 810.305 502.039C810.305 503.406 810.779 504.582 811.727 505.566C812.674 506.533 813.969 507.016 815.609 507.016C817.268 507.016 818.562 506.523 819.492 505.539C820.44 504.555 820.914 503.388 820.914 502.039C820.914 500.672 820.44 499.505 819.492 498.539C818.562 497.555 817.268 497.062 815.609 497.062C813.969 497.062 812.674 497.555 811.727 498.539ZM826.738 491.676L832.699 491.293V506.715H837.457V508H826.574V506.715H831.332V492.605L826.875 492.934L826.738 491.676ZM841.641 502.039C841.641 500.289 842.242 498.794 843.445 497.555C844.648 496.315 846.307 495.695 848.422 495.695C850.573 495.695 852.241 496.324 853.426 497.582C854.611 498.84 855.203 500.326 855.203 502.039C855.203 503.753 854.611 505.238 853.426 506.496C852.241 507.754 850.573 508.383 848.422 508.383C846.307 508.383 844.648 507.763 843.445 506.523C842.242 505.266 841.641 503.771 841.641 502.039ZM844.539 498.539C843.591 499.505 843.117 500.672 843.117 502.039C843.117 503.406 843.591 504.582 844.539 505.566C845.487 506.533 846.781 507.016 848.422 507.016C850.081 507.016 851.375 506.523 852.305 505.539C853.253 504.555 853.727 503.388 853.727 502.039C853.727 500.672 853.253 499.505 852.305 498.539C851.375 497.555 850.081 497.062 848.422 497.062C846.781 497.062 845.487 497.555 844.539 498.539ZM858.895 496.242H863.434V498.977C863.889 498.521 864.245 498.174 864.5 497.938C864.773 497.701 865.174 497.391 865.703 497.008C866.232 496.607 866.77 496.315 867.316 496.133C867.882 495.951 868.474 495.859 869.094 495.859C869.622 495.859 870.096 495.951 870.516 496.133C870.953 496.297 871.272 496.47 871.473 496.652C871.673 496.816 871.901 497.053 872.156 497.363L870.707 498.43C870.634 498.357 870.598 498.293 870.598 498.238C870.452 498.02 870.333 497.865 870.242 497.773C870.169 497.664 870.005 497.546 869.75 497.418C869.495 497.29 869.203 497.227 868.875 497.227C868.328 497.227 867.772 497.345 867.207 497.582C866.642 497.819 866.095 498.165 865.566 498.621C865.038 499.077 864.646 499.441 864.391 499.715C864.135 499.97 863.816 500.307 863.434 500.727V506.715H868.629V508H858.676V506.715H862.066V497.527H858.895V496.242ZM875.684 496.57H878.527V495.039C878.527 494.383 878.564 493.845 878.637 493.426C878.728 493.007 878.91 492.587 879.184 492.168C879.457 491.73 879.895 491.411 880.496 491.211C881.098 491.01 881.872 490.91 882.82 490.91C883.951 490.91 885.299 491.056 886.867 491.348L886.293 492.715C885.126 492.423 883.85 492.277 882.465 492.277C881.845 492.277 881.353 492.35 880.988 492.496C880.624 492.624 880.359 492.852 880.195 493.18C880.049 493.508 879.958 493.79 879.922 494.027C879.904 494.264 879.895 494.629 879.895 495.121V496.57H885.719V497.855H879.895V506.715H885.719V508H875.684V506.715H878.527V497.855H875.684V496.57ZM890.312 496.242H893.922V503.488C893.922 505.84 894.833 507.016 896.656 507.016C898.169 507.016 899.637 506.223 901.059 504.637V497.527H898.707V496.242H902.426V506.715H904.641V508H901.059V506.496C899.655 507.754 898.224 508.383 896.766 508.383C895.945 508.383 895.243 508.237 894.66 507.945C894.077 507.635 893.639 507.234 893.348 506.742C893.056 506.232 892.846 505.712 892.719 505.184C892.609 504.655 892.555 504.09 892.555 503.488V497.527H890.312V496.242ZM908.77 491.676L914.73 491.293V506.715H919.488V508H908.605V506.715H913.363V492.605L908.906 492.934L908.77 491.676ZM947.379 491.375L953.23 490.855V506.715H955.555V508H951.863V505.977H951.809C950.678 507.508 949.138 508.273 947.188 508.273C945.492 508.273 944.052 507.681 942.867 506.496C941.701 505.293 941.117 503.862 941.117 502.203C941.117 500.435 941.728 498.986 942.949 497.855C944.171 496.707 945.565 496.133 947.133 496.133C948.008 496.133 948.883 496.342 949.758 496.762C950.633 497.181 951.316 497.755 951.809 498.484H951.863V492.332L947.461 492.605L947.379 491.375ZM951.809 502.258C951.809 501.055 951.389 499.961 950.551 498.977C949.73 497.992 948.609 497.5 947.188 497.5C945.948 497.5 944.872 497.938 943.961 498.812C943.049 499.688 942.594 500.809 942.594 502.176C942.594 503.543 943.04 504.673 943.934 505.566C944.845 506.46 945.93 506.906 947.188 506.906C948.445 506.906 949.53 506.46 950.441 505.566C951.353 504.673 951.809 503.57 951.809 502.258ZM968.68 499.906V506.715H971.113V508H967.312V506.031C965.617 507.599 963.876 508.383 962.09 508.383C960.796 508.383 959.738 507.991 958.918 507.207C958.098 506.423 957.688 505.53 957.688 504.527C957.688 504.108 957.779 503.68 957.961 503.242C958.161 502.805 958.462 502.367 958.863 501.93C959.283 501.474 959.884 501.109 960.668 500.836C961.47 500.544 962.409 500.398 963.484 500.398C964.833 500.398 966.109 500.517 967.312 500.754V499.906C967.312 499.651 967.303 499.441 967.285 499.277C967.267 499.095 967.203 498.849 967.094 498.539C966.984 498.211 966.82 497.956 966.602 497.773C966.383 497.573 966.046 497.4 965.59 497.254C965.152 497.09 964.624 497.008 964.004 497.008C962.637 497.008 961.078 497.391 959.328 498.156L958.809 496.926C960.777 496.105 962.518 495.695 964.031 495.695C964.906 495.695 965.654 495.814 966.273 496.051C966.911 496.288 967.376 496.552 967.668 496.844C967.978 497.135 968.215 497.518 968.379 497.992C968.543 498.448 968.634 498.794 968.652 499.031C968.671 499.268 968.68 499.56 968.68 499.906ZM967.312 504.199V502.012C966.164 501.811 964.979 501.711 963.758 501.711C962.919 501.711 962.181 501.802 961.543 501.984C960.923 502.167 960.467 502.376 960.176 502.613C959.884 502.832 959.656 503.105 959.492 503.434C959.328 503.743 959.228 503.98 959.191 504.145C959.173 504.29 959.164 504.427 959.164 504.555C959.164 505.229 959.456 505.822 960.039 506.332C960.622 506.824 961.297 507.07 962.062 507.07C963.849 507.07 965.599 506.113 967.312 504.199ZM974.75 496.242H979.289V498.977C979.745 498.521 980.1 498.174 980.355 497.938C980.629 497.701 981.03 497.391 981.559 497.008C982.087 496.607 982.625 496.315 983.172 496.133C983.737 495.951 984.329 495.859 984.949 495.859C985.478 495.859 985.952 495.951 986.371 496.133C986.809 496.297 987.128 496.47 987.328 496.652C987.529 496.816 987.757 497.053 988.012 497.363L986.562 498.43C986.49 498.357 986.453 498.293 986.453 498.238C986.307 498.02 986.189 497.865 986.098 497.773C986.025 497.664 985.861 497.546 985.605 497.418C985.35 497.29 985.059 497.227 984.73 497.227C984.184 497.227 983.628 497.345 983.062 497.582C982.497 497.819 981.951 498.165 981.422 498.621C980.893 499.077 980.501 499.441 980.246 499.715C979.991 499.97 979.672 500.307 979.289 500.727V506.715H984.484V508H974.531V506.715H977.922V497.527H974.75V496.242ZM989.871 491.156L993.945 490.801V501.465L999.059 497.582V497.527H997.527V496.242H1003.24V497.527H1001.11L996.516 501.055C998.867 503.169 1000.69 505.056 1001.98 506.715H1004.28V508H998.594V506.715H1000.34C999.396 505.585 997.773 503.953 995.477 501.82L993.945 502.996V508H990.309V506.715H992.578V492.223L989.98 492.441L989.871 491.156ZM1027.44 492.605H1028.81V496.625H1035.43V497.91H1028.81V503.078C1028.81 503.625 1028.81 504.035 1028.81 504.309C1028.83 504.564 1028.88 504.901 1028.97 505.32C1029.08 505.74 1029.23 506.049 1029.41 506.25C1029.59 506.432 1029.88 506.605 1030.26 506.77C1030.64 506.934 1031.11 507.016 1031.65 507.016C1032.91 507.016 1034.67 506.542 1036.93 505.594L1037.42 506.824C1035.12 507.863 1033.25 508.383 1031.79 508.383C1030.35 508.383 1029.22 507.973 1028.4 507.152C1027.96 506.715 1027.69 506.214 1027.58 505.648C1027.49 505.065 1027.44 504.208 1027.44 503.078V497.91H1025.58V496.625H1027.44V492.605ZM1039.8 491.129L1043.82 490.801V497.773C1044.37 497.372 1044.81 497.062 1045.16 496.844C1045.52 496.625 1046.02 496.406 1046.64 496.188C1047.27 495.951 1047.89 495.832 1048.5 495.832C1049.74 495.832 1050.72 496.251 1051.45 497.09C1052.18 497.91 1052.54 498.995 1052.54 500.344V506.715H1054.84V508H1048.85V506.715H1051.18V500.453C1051.18 499.469 1050.94 498.685 1050.46 498.102C1049.99 497.5 1049.35 497.199 1048.55 497.199C1047.18 497.199 1045.61 497.928 1043.82 499.387V506.715H1045.98V508H1040.16V506.715H1042.45V492.195L1039.91 492.414L1039.8 491.129ZM1070.18 505.238L1070.81 506.441C1068.49 507.736 1066.29 508.383 1064.19 508.383C1062.08 508.383 1060.44 507.781 1059.27 506.578C1058.12 505.357 1057.55 503.88 1057.55 502.148C1057.55 500.398 1058.14 498.913 1059.32 497.691C1060.51 496.452 1062.08 495.832 1064.03 495.832C1065.96 495.832 1067.47 496.388 1068.57 497.5C1069.68 498.612 1070.23 499.87 1070.23 501.273C1070.23 501.438 1070.23 501.674 1070.21 501.984C1070.19 502.294 1070.18 502.467 1070.18 502.504H1059.02C1059.04 502.941 1059.13 503.388 1059.3 503.844C1059.46 504.299 1059.72 504.792 1060.06 505.32C1060.41 505.831 1060.94 506.25 1061.65 506.578C1062.38 506.906 1063.23 507.07 1064.22 507.07C1065.75 507.07 1067.74 506.46 1070.18 505.238ZM1059.02 501.219H1068.76C1068.74 500.198 1068.32 499.268 1067.5 498.43C1066.7 497.573 1065.54 497.145 1064.03 497.145C1063.19 497.145 1062.43 497.299 1061.76 497.609C1061.1 497.901 1060.59 498.284 1060.23 498.758C1059.86 499.214 1059.58 499.651 1059.38 500.07C1059.2 500.471 1059.08 500.854 1059.02 501.219ZM1071.93 496.242H1075.05V497.199L1075.4 496.898C1076.04 496.26 1076.82 495.941 1077.75 495.941C1078.34 495.941 1078.88 496.096 1079.37 496.406C1079.86 496.698 1080.23 497.117 1080.49 497.664C1081.47 496.516 1082.51 495.941 1083.61 495.941C1084.08 495.941 1084.54 496.051 1085 496.27C1085.46 496.488 1085.8 496.771 1086.04 497.117C1086.31 497.518 1086.49 497.947 1086.59 498.402C1086.7 498.84 1086.75 499.56 1086.75 500.562V506.715H1088.31V508H1085.38V500.562C1085.38 500.034 1085.37 499.642 1085.36 499.387C1085.34 499.113 1085.27 498.785 1085.16 498.402C1085.07 498.02 1084.9 497.746 1084.64 497.582C1084.39 497.4 1084.05 497.309 1083.63 497.309C1082.7 497.309 1081.81 497.91 1080.95 499.113V506.715H1082.65V508H1079.59V500.453C1079.59 500.089 1079.58 499.815 1079.56 499.633C1079.56 499.451 1079.53 499.186 1079.48 498.84C1079.42 498.493 1079.33 498.229 1079.2 498.047C1079.09 497.865 1078.91 497.701 1078.66 497.555C1078.42 497.391 1078.13 497.309 1077.78 497.309C1076.85 497.309 1075.98 497.819 1075.16 498.84V506.715H1077.02V508H1071.93V506.715H1073.79V497.527H1071.93V496.242ZM1102.99 505.238L1103.62 506.441C1101.31 507.736 1099.1 508.383 1097 508.383C1094.89 508.383 1093.25 507.781 1092.08 506.578C1090.93 505.357 1090.36 503.88 1090.36 502.148C1090.36 500.398 1090.95 498.913 1092.14 497.691C1093.32 496.452 1094.89 495.832 1096.84 495.832C1098.77 495.832 1100.29 496.388 1101.38 497.5C1102.49 498.612 1103.05 499.87 1103.05 501.273C1103.05 501.438 1103.04 501.674 1103.02 501.984C1103 502.294 1102.99 502.467 1102.99 502.504H1091.84C1091.85 502.941 1091.95 503.388 1092.11 503.844C1092.27 504.299 1092.53 504.792 1092.88 505.32C1093.22 505.831 1093.75 506.25 1094.46 506.578C1095.19 506.906 1096.05 507.07 1097.03 507.07C1098.56 507.07 1100.55 506.46 1102.99 505.238ZM1091.84 501.219H1101.57C1101.55 500.198 1101.13 499.268 1100.31 498.43C1099.51 497.573 1098.35 497.145 1096.84 497.145C1096 497.145 1095.24 497.299 1094.57 497.609C1093.91 497.901 1093.4 498.284 1093.04 498.758C1092.67 499.214 1092.39 499.651 1092.19 500.07C1092.01 500.471 1091.89 500.854 1091.84 501.219ZM1116.69 495.695L1117.92 495.887C1117.76 496.743 1117.68 497.527 1117.68 498.238C1117.68 498.621 1117.72 499.195 1117.81 499.961L1116.61 500.098C1116.54 499.715 1116.45 499.405 1116.36 499.168C1116.27 498.931 1116.09 498.639 1115.82 498.293C1115.54 497.947 1115.11 497.691 1114.53 497.527C1113.95 497.345 1113.21 497.254 1112.32 497.254C1111.28 497.254 1110.45 497.445 1109.83 497.828C1109.23 498.211 1108.93 498.694 1108.93 499.277C1108.93 499.605 1108.98 499.888 1109.09 500.125C1109.2 500.362 1109.4 500.562 1109.69 500.727C1109.98 500.872 1110.26 501 1110.51 501.109C1110.77 501.201 1111.16 501.273 1111.69 501.328C1112.23 501.383 1112.67 501.428 1113 501.465C1113.33 501.483 1113.85 501.51 1114.56 501.547C1114.8 501.565 1115.01 501.583 1115.21 501.602C1115.43 501.62 1115.76 501.693 1116.2 501.82C1116.64 501.948 1117.01 502.112 1117.32 502.312C1117.63 502.495 1117.9 502.786 1118.14 503.188C1118.4 503.589 1118.52 504.062 1118.52 504.609C1118.52 505.831 1117.99 506.77 1116.91 507.426C1115.85 508.082 1114.65 508.41 1113.3 508.41C1111.97 508.41 1110.63 508.027 1109.28 507.262C1109.23 507.225 1109.18 507.207 1109.14 507.207C1108.98 507.207 1108.8 507.59 1108.6 508.355H1107.39C1107.5 507.736 1107.56 507.161 1107.56 506.633C1107.56 506.086 1107.5 505.184 1107.39 503.926L1108.6 503.789C1108.65 504.062 1108.7 504.299 1108.73 504.5C1108.79 504.701 1108.92 504.974 1109.12 505.32C1109.32 505.667 1109.56 505.958 1109.86 506.195C1110.15 506.414 1110.57 506.615 1111.11 506.797C1111.66 506.961 1112.29 507.043 1113 507.043C1113.36 507.043 1113.74 507.016 1114.12 506.961C1114.5 506.906 1114.93 506.806 1115.41 506.66C1115.9 506.514 1116.29 506.268 1116.58 505.922C1116.89 505.576 1117.05 505.156 1117.05 504.664C1117.05 504.263 1116.96 503.944 1116.77 503.707C1116.61 503.47 1116.32 503.297 1115.9 503.188C1115.48 503.06 1115.09 502.978 1114.72 502.941C1114.38 502.905 1113.85 502.878 1113.14 502.859C1109.35 502.714 1107.45 501.538 1107.45 499.332C1107.45 498.348 1107.9 497.527 1108.79 496.871C1109.7 496.215 1110.87 495.887 1112.29 495.887C1113.53 495.887 1114.58 496.151 1115.43 496.68C1115.6 496.844 1115.8 496.926 1116.04 496.926C1116.22 496.926 1116.38 496.707 1116.53 496.27L1116.69 495.695ZM1130.5 492.387L1129.98 502.723H1128.72L1128.23 492.387H1130.5ZM1129.35 505.102C1129.9 505.102 1130.35 505.266 1130.69 505.594C1131.06 505.922 1131.24 506.323 1131.24 506.797C1131.24 507.253 1131.06 507.645 1130.69 507.973C1130.33 508.301 1129.88 508.465 1129.35 508.465C1128.82 508.465 1128.38 508.301 1128.01 507.973C1127.65 507.645 1127.46 507.243 1127.46 506.77C1127.46 506.314 1127.65 505.922 1128.01 505.594C1128.38 505.266 1128.82 505.102 1129.35 505.102Z" fill="white"/>
<defs>
<linearGradient id="paint0_linear" x1="836.919" y1="642" x2="1098" y2="762.968" gradientUnits="userSpaceOnUse">
<stop stop-color="#6BF178" stop-opacity="0.911458"/>
<stop offset="0.119792" stop-color="#00CECB"/>
<stop offset="0.244792" stop-color="#E84855" stop-opacity="0.828125"/>
<stop offset="0.354167" stop-color="#F0AA85"/>
<stop offset="0.494792" stop-color="#FF5D8F"/>
<stop offset="0.625" stop-color="#A29BFE"/>
<stop offset="0.729167" stop-color="#EB8E82"/>
<stop offset="0.869792" stop-color="#F4F482"/>
<stop offset="1" stop-color="#F38375"/>
</linearGradient>
<linearGradient id="paint1_linear" x1="728.883" y1="319" x2="1184.64" y2="559.874" gradientUnits="userSpaceOnUse">
<stop stop-color="#6BF178" stop-opacity="0.911458"/>
<stop offset="0.119792" stop-color="#00CECB"/>
<stop offset="0.244792" stop-color="#E84855" stop-opacity="0.828125"/>
<stop offset="0.354167" stop-color="#F0AA85"/>
<stop offset="0.494792" stop-color="#FF5D8F"/>
<stop offset="0.625" stop-color="#A29BFE"/>
<stop offset="0.729167" stop-color="#EB8E82"/>
<stop offset="0.869792" stop-color="#F4F482"/>
<stop offset="1" stop-color="#F38375"/>
</linearGradient>
</defs>
</svg>
