<svg width="891" height="404" viewBox="0 0 891 404" fill="none" xmlns="http://www.w3.org/2000/svg">
<rect width="891" height="404" rx="15" fill="#0D1117"/>
<path d="M294.275 227.15C293.605 227.15 292.99 226.985 292.43 226.655C291.88 226.315 291.44 225.795 291.11 225.095C290.79 224.385 290.625 223.48 290.615 222.38C290.615 221.46 290.72 220.695 290.93 220.085C291.15 219.465 291.435 218.975 291.785 218.615C292.135 218.245 292.52 217.98 292.94 217.82C293.37 217.66 293.795 217.58 294.215 217.58C294.895 217.58 295.475 217.75 295.955 218.09C296.435 218.42 296.795 218.865 297.035 219.425L296.135 219.845L296 219.905L295.955 219.8C295.985 219.72 295.985 219.65 295.955 219.59C295.925 219.52 295.87 219.415 295.79 219.275C295.54 218.935 295.28 218.71 295.01 218.6C294.75 218.48 294.475 218.42 294.185 218.42C293.395 218.42 292.77 218.765 292.31 219.455C291.86 220.135 291.635 221.085 291.635 222.305C291.635 223.085 291.75 223.775 291.98 224.375C292.22 224.965 292.535 225.425 292.925 225.755C293.315 226.085 293.75 226.25 294.23 226.25C294.61 226.25 294.965 226.15 295.295 225.95C295.635 225.74 295.91 225.46 296.12 225.11L296.9 225.62C296.6 226.12 296.24 226.5 295.82 226.76C295.4 227.02 294.885 227.15 294.275 227.15ZM308.75 227.165C307.68 227.165 306.855 226.75 306.275 225.92C305.695 225.09 305.405 223.91 305.405 222.38C305.405 220.9 305.695 219.735 306.275 218.885C306.855 218.025 307.68 217.595 308.75 217.595C309.82 217.595 310.645 218.025 311.225 218.885C311.805 219.735 312.095 220.9 312.095 222.38C312.095 223.91 311.805 225.09 311.225 225.92C310.645 226.75 309.82 227.165 308.75 227.165ZM308.75 226.25C309.46 226.25 310.015 225.915 310.415 225.245C310.815 224.575 311.015 223.62 311.015 222.38C311.015 221.2 310.815 220.26 310.415 219.56C310.015 218.86 309.46 218.51 308.75 218.51C308.04 218.51 307.485 218.86 307.085 219.56C306.685 220.26 306.485 221.2 306.485 222.38C306.485 223.62 306.685 224.575 307.085 225.245C307.485 225.915 308.04 226.25 308.75 226.25ZM320.99 217.655H322.22V217.76C322.16 217.82 322.12 217.885 322.1 217.955C322.09 218.025 322.085 218.145 322.085 218.315V226.1H326.585V227H320.99V217.655ZM338.75 227.165C337.68 227.165 336.855 226.75 336.275 225.92C335.695 225.09 335.405 223.91 335.405 222.38C335.405 220.9 335.695 219.735 336.275 218.885C336.855 218.025 337.68 217.595 338.75 217.595C339.82 217.595 340.645 218.025 341.225 218.885C341.805 219.735 342.095 220.9 342.095 222.38C342.095 223.91 341.805 225.09 341.225 225.92C340.645 226.75 339.82 227.165 338.75 227.165ZM338.75 226.25C339.46 226.25 340.015 225.915 340.415 225.245C340.815 224.575 341.015 223.62 341.015 222.38C341.015 221.2 340.815 220.26 340.415 219.56C340.015 218.86 339.46 218.51 338.75 218.51C338.04 218.51 337.485 218.86 337.085 219.56C336.685 220.26 336.485 221.2 336.485 222.38C336.485 223.62 336.685 224.575 337.085 225.245C337.485 225.915 338.04 226.25 338.75 226.25ZM350.84 227V217.655H353.6C354.7 217.655 355.49 217.9 355.97 218.39C356.46 218.88 356.705 219.525 356.705 220.325C356.705 220.675 356.625 221.025 356.465 221.375C356.315 221.725 356.095 222.03 355.805 222.29C355.525 222.55 355.19 222.73 354.8 222.83L356.96 227H355.79L353.72 222.875H351.905V227H350.84ZM351.905 221.945H353.72C354.39 221.945 354.875 221.8 355.175 221.51C355.475 221.21 355.625 220.815 355.625 220.325C355.625 219.855 355.475 219.46 355.175 219.14C354.875 218.81 354.39 218.645 353.72 218.645H351.905V221.945ZM366.17 227V217.64H371.555V218.555H367.22V221.495H370.715V222.41H367.22V227H366.17ZM383.765 227.165C382.765 227.165 382.01 226.87 381.5 226.28C381 225.68 380.75 224.845 380.75 223.775V217.655H381.92V217.76C381.86 217.82 381.82 217.885 381.8 217.955C381.79 218.025 381.785 218.145 381.785 218.315V223.79C381.785 224.55 381.93 225.155 382.22 225.605C382.52 226.055 383.04 226.28 383.78 226.28C384.53 226.28 385.055 226.055 385.355 225.605C385.655 225.155 385.805 224.535 385.805 223.745V217.655H386.81V223.73C386.81 224.91 386.53 225.78 385.97 226.34C385.42 226.89 384.685 227.165 383.765 227.165ZM395.99 217.655H397.22V217.76C397.16 217.82 397.12 217.885 397.1 217.955C397.09 218.025 397.085 218.145 397.085 218.315V226.1H401.585V227H395.99V217.655ZM425.81 227.015V217.655H427.985C428.785 217.655 429.405 217.765 429.845 217.985C430.295 218.205 430.675 218.52 430.985 218.93C431.595 219.75 431.9 220.9 431.9 222.38C431.86 223.33 431.7 224.155 431.42 224.855C431.15 225.545 430.72 226.08 430.13 226.46C429.55 226.83 428.775 227.015 427.805 227.015H425.81ZM426.8 226.19H427.76C428.83 226.19 429.615 225.87 430.115 225.23C430.615 224.58 430.86 223.65 430.85 222.44C430.84 221.22 430.61 220.265 430.16 219.575C429.72 218.885 428.975 218.54 427.925 218.54H426.8V226.19ZM446.18 227L445.235 224.27H442.22L441.275 227H440.24L443.69 217.49H443.81L447.26 227H446.18ZM443.735 219.89L442.505 223.46H444.965L443.735 219.89ZM455.84 227V217.655H458.6C459.7 217.655 460.49 217.9 460.97 218.39C461.46 218.88 461.705 219.525 461.705 220.325C461.705 220.675 461.625 221.025 461.465 221.375C461.315 221.725 461.095 222.03 460.805 222.29C460.525 222.55 460.19 222.73 459.8 222.83L461.96 227H460.79L458.72 222.875H456.905V227H455.84ZM456.905 221.945H458.72C459.39 221.945 459.875 221.8 460.175 221.51C460.475 221.21 460.625 220.815 460.625 220.325C460.625 219.855 460.475 219.46 460.175 219.14C459.875 218.81 459.39 218.645 458.72 218.645H456.905V221.945ZM472.49 222.32L471.755 223.13V227H470.63V217.655H471.89V217.76C471.83 217.82 471.79 217.885 471.77 217.955C471.76 218.025 471.755 218.145 471.755 218.315V221.96L475.655 217.58C475.765 217.6 475.885 217.62 476.015 217.64C476.145 217.65 476.285 217.655 476.435 217.655H476.825L473.285 221.69L477.065 227L475.715 227.06L472.49 222.32ZM503.12 227V218.585H500.465V217.64H506.945V218.585H504.185V227H503.12ZM515.75 217.655H516.98V217.76C516.92 217.82 516.88 217.885 516.86 217.955C516.85 218.025 516.845 218.145 516.845 218.315V221.645H520.505V217.655H521.735V217.76C521.675 217.82 521.635 217.885 521.615 217.955C521.605 218.025 521.6 218.145 521.6 218.315V227H520.49V222.545H516.845V227H515.75V217.655ZM530.885 227V217.64H536.615V218.57H531.875V221.645H535.79V222.605H531.875V226.07H536.57V227H530.885ZM545.615 227V217.655H546.44L548.75 222.23L551.105 217.64H551.9V227H550.91V219.95L548.885 223.715H548.48L546.59 219.995V227H545.615ZM560.885 227V217.64H566.615V218.57H561.875V221.645H565.79V222.605H561.875V226.07H566.57V227H560.885ZM578.705 227.15C577.495 227.15 576.52 226.755 575.78 225.965L576.32 225.02L576.38 224.885L576.485 224.945C576.505 225.015 576.53 225.095 576.56 225.185C576.59 225.265 576.66 225.365 576.77 225.485C577.03 225.705 577.33 225.88 577.67 226.01C578.02 226.14 578.415 226.205 578.855 226.205C579.415 226.205 579.875 226.05 580.235 225.74C580.605 225.42 580.79 225.04 580.79 224.6C580.79 224.31 580.73 224.065 580.61 223.865C580.5 223.665 580.29 223.47 579.98 223.28C579.68 223.09 579.235 222.87 578.645 222.62C577.675 222.24 577.005 221.815 576.635 221.345C576.265 220.875 576.08 220.375 576.08 219.845C576.08 219.155 576.335 218.6 576.845 218.18C577.355 217.75 578.05 217.535 578.93 217.535C579.44 217.535 579.92 217.64 580.37 217.85C580.82 218.05 581.205 218.335 581.525 218.705L580.85 219.605L580.76 219.545C580.75 219.465 580.73 219.385 580.7 219.305C580.67 219.225 580.6 219.125 580.49 219.005C580.25 218.775 579.995 218.62 579.725 218.54C579.455 218.45 579.135 218.405 578.765 218.405C578.275 218.405 577.885 218.54 577.595 218.81C577.305 219.08 577.16 219.4 577.16 219.77C577.16 220.05 577.22 220.3 577.34 220.52C577.47 220.73 577.7 220.94 578.03 221.15C578.36 221.36 578.84 221.59 579.47 221.84C580.08 222.09 580.555 222.345 580.895 222.605C581.235 222.855 581.475 223.13 581.615 223.43C581.755 223.72 581.825 224.06 581.825 224.45C581.825 224.88 581.715 225.305 581.495 225.725C581.285 226.135 580.95 226.475 580.49 226.745C580.03 227.015 579.435 227.15 578.705 227.15ZM593.225 224.09L592.85 218.09C592.85 217.74 592.915 217.47 593.045 217.28C593.185 217.08 593.375 216.98 593.615 216.98C593.845 216.98 594.03 217.08 594.17 217.28C594.31 217.47 594.38 217.79 594.38 218.24L593.975 224.09H593.225ZM593.585 227.165C593.345 227.165 593.135 227.08 592.955 226.91C592.785 226.74 592.7 226.535 592.7 226.295C592.7 226.055 592.785 225.845 592.955 225.665C593.135 225.485 593.345 225.395 593.585 225.395C593.825 225.395 594.035 225.485 594.215 225.665C594.395 225.845 594.485 226.055 594.485 226.295C594.485 226.525 594.395 226.73 594.215 226.91C594.035 227.08 593.825 227.165 593.585 227.165Z" fill="white"/>
<path d="M271.24 189V139.08H299.96V143.96H276.84V159.64H295.48V164.52H276.84V189H271.24ZM350.28 139.16H356.84V139.72C356.52 140.04 356.307 140.387 356.2 140.76C356.147 141.133 356.12 141.773 356.12 142.68V184.2H380.12V189H350.28V139.16ZM521.64 189V144.12H507.48V139.08H542.04V144.12H527.32V189H521.64ZM589.72 189V139.08H620.28V144.04H595V160.44H615.88V165.56H595V184.04H620.04V189H589.72Z" fill="white"/>
<path d="M470.673 141.5L446 184.29L421.327 141.5H470.673Z" stroke="white" stroke-width="5"/>
<circle cx="348.961" cy="269.961" r="14.9611" fill="#424B54"/>
<circle cx="363.728" cy="269.961" r="14.9611" fill="#8F8D88"/>
<circle cx="378.884" cy="269.961" r="14.9611" fill="#E9DBDB"/>
<circle cx="393.65" cy="269.961" r="14.9611" fill="#F0AA85"/>
<circle cx="408.806" cy="269.961" r="14.9611" fill="#F38375"/>
<circle cx="423.572" cy="269.961" r="14.9611" fill="#FF5D8F"/>
<circle cx="438.728" cy="269.961" r="14.9611" fill="#E84855"/>
<circle cx="453.884" cy="269.961" r="14.9611" fill="#A29BFE"/>
<circle cx="468.65" cy="269.961" r="14.9611" fill="#EAB464"/>
<circle cx="483.806" cy="269.961" r="14.9611" fill="#F49E4C"/>
<circle cx="498.572" cy="269.961" r="14.9611" fill="#FFE066"/>
<circle cx="513.728" cy="269.961" r="14.9611" fill="#00CECB"/>
<circle cx="528.495" cy="269.961" r="14.9611" fill="#5677FC"/>
<circle cx="544.039" cy="269.961" r="14.9611" fill="#23D18C"/>
</svg>
