<svg width="1929" height="838" viewBox="0 0 1929 838" fill="none" xmlns="http://www.w3.org/2000/svg">
<rect width="1929" height="838" rx="20" fill="#1C1D27"/>
<path d="M906.4 687.86C905.16 691.22 903.12 693.86 900.28 695.78C897.44 697.66 894.16 698.6 890.44 698.6C886.72 698.6 883.48 697.78 880.72 696.14C877.96 694.46 875.82 692.1 874.3 689.06C872.82 685.98 872.08 682.36 872.08 678.2C872.08 674.08 872.82 670.48 874.3 667.4C875.82 664.32 877.96 661.96 880.72 660.32C883.48 658.64 886.68 657.8 890.32 657.8C894.12 657.8 897.3 658.58 899.86 660.14C902.46 661.7 904.4 664 905.68 667.04L900.94 669.26C900.06 666.94 898.78 665.2 897.1 664.04C895.42 662.88 893.28 662.3 890.68 662.3C887.96 662.3 885.58 662.94 883.54 664.22C881.5 665.46 879.92 667.28 878.8 669.68C877.68 672.08 877.12 674.92 877.12 678.2C877.12 683.16 878.3 687.06 880.66 689.9C883.06 692.7 886.32 694.1 890.44 694.1C893.12 694.1 895.44 693.42 897.4 692.06C899.36 690.7 900.76 688.7 901.6 686.06L906.4 687.86ZM931.573 657.8C935.293 657.8 938.533 658.64 941.293 660.32C944.053 661.96 946.173 664.32 947.653 667.4C949.173 670.44 949.933 674.04 949.933 678.2C949.933 682.36 949.173 685.98 947.653 689.06C946.173 692.1 944.053 694.46 941.293 696.14C938.533 697.78 935.293 698.6 931.573 698.6C927.853 698.6 924.613 697.78 921.853 696.14C919.093 694.46 916.953 692.1 915.433 689.06C913.953 685.98 913.213 682.36 913.213 678.2C913.213 674.04 913.953 670.44 915.433 667.4C916.953 664.32 919.093 661.96 921.853 660.32C924.613 658.64 927.853 657.8 931.573 657.8ZM931.573 662.3C927.453 662.3 924.193 663.72 921.793 666.56C919.433 669.36 918.253 673.24 918.253 678.2C918.253 683.16 919.433 687.06 921.793 689.9C924.193 692.7 927.453 694.1 931.573 694.1C935.693 694.1 938.933 692.7 941.293 689.9C943.693 687.06 944.893 683.16 944.893 678.2C944.893 673.24 943.693 669.36 941.293 666.56C938.933 663.72 935.693 662.3 931.573 662.3ZM974.776 681.56H965.296V698H960.496V658.4H975.496C979.536 658.4 982.776 659.44 985.216 661.52C987.656 663.6 988.876 666.42 988.876 669.98C988.876 672.78 988.096 675.14 986.536 677.06C984.976 678.98 982.836 680.3 980.116 681.02L991.276 698H985.576L974.776 681.56ZM965.296 677.06H975.436C981.036 677.06 983.836 674.7 983.836 669.98C983.836 665.26 981.036 662.9 975.436 662.9H965.296V677.06ZM1029.08 693.5V698H1000.4V658.4H1028.18V662.9H1005.2V675.68H1023.08V680.18H1005.2V693.5H1029.08Z" fill="url(#paint0_linear)"/>
<path fill-rule="evenodd" clip-rule="evenodd" d="M959.52 319H968.334L1019.9 431.827H1010.36L963.713 328.306L917.209 431.827H907.513L959.519 319.001H959.52L959.52 319ZM826.42 319H834.353V423.893H900.461V431.826H834.353V431.827H826.42V431.826H826.419V423.893H826.42V319ZM718 374.533H725.933V374.534H790.279V383.348H725.933V431.827H718V383.348V374.534V374.533ZM718 326.934V319.001H790.279V326.934H718ZM1111.13 326.934H1070.58V431.827H1061.77V326.934H1022.1V319.882H1111.13V326.934ZM1136.69 319V326.933H1210.73V319H1136.69ZM1136.69 378.058V370.125H1210.73V378.058H1136.69ZM1136.69 423.893V431.826H1210.73V423.893H1136.69Z" fill="url(#paint1_linear)"/>
<path d="M805.34 504.309L806.242 505.293C804.036 507.408 801.667 508.465 799.133 508.465C796.818 508.465 795.004 507.663 793.691 506.059C792.397 504.454 791.75 502.477 791.75 500.125C791.75 497.773 792.443 495.859 793.828 494.383C795.232 492.888 796.982 492.141 799.078 492.141C800.518 492.141 801.685 492.533 802.578 493.316C802.815 493.517 802.97 493.617 803.043 493.617C803.225 493.617 803.362 493.18 803.453 492.305H804.465C804.41 493.945 804.501 495.686 804.738 497.527L803.453 497.746C803.253 496.579 802.952 495.704 802.551 495.121C801.822 494.046 800.646 493.508 799.023 493.508C797.273 493.508 795.87 494.146 794.812 495.422C793.755 496.68 793.227 498.238 793.227 500.098C793.227 500.699 793.281 501.301 793.391 501.902C793.5 502.486 793.691 503.096 793.965 503.734C794.238 504.372 794.585 504.938 795.004 505.43C795.441 505.922 796.016 506.323 796.727 506.633C797.438 506.943 798.24 507.098 799.133 507.098C801.156 507.098 803.225 506.168 805.34 504.309ZM807.828 502.039C807.828 500.289 808.43 498.794 809.633 497.555C810.836 496.315 812.495 495.695 814.609 495.695C816.76 495.695 818.428 496.324 819.613 497.582C820.798 498.84 821.391 500.326 821.391 502.039C821.391 503.753 820.798 505.238 819.613 506.496C818.428 507.754 816.76 508.383 814.609 508.383C812.495 508.383 810.836 507.763 809.633 506.523C808.43 505.266 807.828 503.771 807.828 502.039ZM810.727 498.539C809.779 499.505 809.305 500.672 809.305 502.039C809.305 503.406 809.779 504.582 810.727 505.566C811.674 506.533 812.969 507.016 814.609 507.016C816.268 507.016 817.562 506.523 818.492 505.539C819.44 504.555 819.914 503.388 819.914 502.039C819.914 500.672 819.44 499.505 818.492 498.539C817.562 497.555 816.268 497.062 814.609 497.062C812.969 497.062 811.674 497.555 810.727 498.539ZM825.738 491.676L831.699 491.293V506.715H836.457V508H825.574V506.715H830.332V492.605L825.875 492.934L825.738 491.676ZM840.641 502.039C840.641 500.289 841.242 498.794 842.445 497.555C843.648 496.315 845.307 495.695 847.422 495.695C849.573 495.695 851.241 496.324 852.426 497.582C853.611 498.84 854.203 500.326 854.203 502.039C854.203 503.753 853.611 505.238 852.426 506.496C851.241 507.754 849.573 508.383 847.422 508.383C845.307 508.383 843.648 507.763 842.445 506.523C841.242 505.266 840.641 503.771 840.641 502.039ZM843.539 498.539C842.591 499.505 842.117 500.672 842.117 502.039C842.117 503.406 842.591 504.582 843.539 505.566C844.487 506.533 845.781 507.016 847.422 507.016C849.081 507.016 850.375 506.523 851.305 505.539C852.253 504.555 852.727 503.388 852.727 502.039C852.727 500.672 852.253 499.505 851.305 498.539C850.375 497.555 849.081 497.062 847.422 497.062C845.781 497.062 844.487 497.555 843.539 498.539ZM857.895 496.242H862.434V498.977C862.889 498.521 863.245 498.174 863.5 497.938C863.773 497.701 864.174 497.391 864.703 497.008C865.232 496.607 865.77 496.315 866.316 496.133C866.882 495.951 867.474 495.859 868.094 495.859C868.622 495.859 869.096 495.951 869.516 496.133C869.953 496.297 870.272 496.47 870.473 496.652C870.673 496.816 870.901 497.053 871.156 497.363L869.707 498.43C869.634 498.357 869.598 498.293 869.598 498.238C869.452 498.02 869.333 497.865 869.242 497.773C869.169 497.664 869.005 497.546 868.75 497.418C868.495 497.29 868.203 497.227 867.875 497.227C867.328 497.227 866.772 497.345 866.207 497.582C865.642 497.819 865.095 498.165 864.566 498.621C864.038 499.077 863.646 499.441 863.391 499.715C863.135 499.97 862.816 500.307 862.434 500.727V506.715H867.629V508H857.676V506.715H861.066V497.527H857.895V496.242ZM874.684 496.57H877.527V495.039C877.527 494.383 877.564 493.845 877.637 493.426C877.728 493.007 877.91 492.587 878.184 492.168C878.457 491.73 878.895 491.411 879.496 491.211C880.098 491.01 880.872 490.91 881.82 490.91C882.951 490.91 884.299 491.056 885.867 491.348L885.293 492.715C884.126 492.423 882.85 492.277 881.465 492.277C880.845 492.277 880.353 492.35 879.988 492.496C879.624 492.624 879.359 492.852 879.195 493.18C879.049 493.508 878.958 493.79 878.922 494.027C878.904 494.264 878.895 494.629 878.895 495.121V496.57H884.719V497.855H878.895V506.715H884.719V508H874.684V506.715H877.527V497.855H874.684V496.57ZM889.312 496.242H892.922V503.488C892.922 505.84 893.833 507.016 895.656 507.016C897.169 507.016 898.637 506.223 900.059 504.637V497.527H897.707V496.242H901.426V506.715H903.641V508H900.059V506.496C898.655 507.754 897.224 508.383 895.766 508.383C894.945 508.383 894.243 508.237 893.66 507.945C893.077 507.635 892.639 507.234 892.348 506.742C892.056 506.232 891.846 505.712 891.719 505.184C891.609 504.655 891.555 504.09 891.555 503.488V497.527H889.312V496.242ZM907.77 491.676L913.73 491.293V506.715H918.488V508H907.605V506.715H912.363V492.605L907.906 492.934L907.77 491.676ZM946.379 491.375L952.23 490.855V506.715H954.555V508H950.863V505.977H950.809C949.678 507.508 948.138 508.273 946.188 508.273C944.492 508.273 943.052 507.681 941.867 506.496C940.701 505.293 940.117 503.862 940.117 502.203C940.117 500.435 940.728 498.986 941.949 497.855C943.171 496.707 944.565 496.133 946.133 496.133C947.008 496.133 947.883 496.342 948.758 496.762C949.633 497.181 950.316 497.755 950.809 498.484H950.863V492.332L946.461 492.605L946.379 491.375ZM950.809 502.258C950.809 501.055 950.389 499.961 949.551 498.977C948.73 497.992 947.609 497.5 946.188 497.5C944.948 497.5 943.872 497.938 942.961 498.812C942.049 499.688 941.594 500.809 941.594 502.176C941.594 503.543 942.04 504.673 942.934 505.566C943.845 506.46 944.93 506.906 946.188 506.906C947.445 506.906 948.53 506.46 949.441 505.566C950.353 504.673 950.809 503.57 950.809 502.258ZM967.68 499.906V506.715H970.113V508H966.312V506.031C964.617 507.599 962.876 508.383 961.09 508.383C959.796 508.383 958.738 507.991 957.918 507.207C957.098 506.423 956.688 505.53 956.688 504.527C956.688 504.108 956.779 503.68 956.961 503.242C957.161 502.805 957.462 502.367 957.863 501.93C958.283 501.474 958.884 501.109 959.668 500.836C960.47 500.544 961.409 500.398 962.484 500.398C963.833 500.398 965.109 500.517 966.312 500.754V499.906C966.312 499.651 966.303 499.441 966.285 499.277C966.267 499.095 966.203 498.849 966.094 498.539C965.984 498.211 965.82 497.956 965.602 497.773C965.383 497.573 965.046 497.4 964.59 497.254C964.152 497.09 963.624 497.008 963.004 497.008C961.637 497.008 960.078 497.391 958.328 498.156L957.809 496.926C959.777 496.105 961.518 495.695 963.031 495.695C963.906 495.695 964.654 495.814 965.273 496.051C965.911 496.288 966.376 496.552 966.668 496.844C966.978 497.135 967.215 497.518 967.379 497.992C967.543 498.448 967.634 498.794 967.652 499.031C967.671 499.268 967.68 499.56 967.68 499.906ZM966.312 504.199V502.012C965.164 501.811 963.979 501.711 962.758 501.711C961.919 501.711 961.181 501.802 960.543 501.984C959.923 502.167 959.467 502.376 959.176 502.613C958.884 502.832 958.656 503.105 958.492 503.434C958.328 503.743 958.228 503.98 958.191 504.145C958.173 504.29 958.164 504.427 958.164 504.555C958.164 505.229 958.456 505.822 959.039 506.332C959.622 506.824 960.297 507.07 961.062 507.07C962.849 507.07 964.599 506.113 966.312 504.199ZM973.75 496.242H978.289V498.977C978.745 498.521 979.1 498.174 979.355 497.938C979.629 497.701 980.03 497.391 980.559 497.008C981.087 496.607 981.625 496.315 982.172 496.133C982.737 495.951 983.329 495.859 983.949 495.859C984.478 495.859 984.952 495.951 985.371 496.133C985.809 496.297 986.128 496.47 986.328 496.652C986.529 496.816 986.757 497.053 987.012 497.363L985.562 498.43C985.49 498.357 985.453 498.293 985.453 498.238C985.307 498.02 985.189 497.865 985.098 497.773C985.025 497.664 984.861 497.546 984.605 497.418C984.35 497.29 984.059 497.227 983.73 497.227C983.184 497.227 982.628 497.345 982.062 497.582C981.497 497.819 980.951 498.165 980.422 498.621C979.893 499.077 979.501 499.441 979.246 499.715C978.991 499.97 978.672 500.307 978.289 500.727V506.715H983.484V508H973.531V506.715H976.922V497.527H973.75V496.242ZM988.871 491.156L992.945 490.801V501.465L998.059 497.582V497.527H996.527V496.242H1002.24V497.527H1000.11L995.516 501.055C997.867 503.169 999.69 505.056 1000.98 506.715H1003.28V508H997.594V506.715H999.344C998.396 505.585 996.773 503.953 994.477 501.82L992.945 502.996V508H989.309V506.715H991.578V492.223L988.98 492.441L988.871 491.156ZM1026.44 492.605H1027.81V496.625H1034.43V497.91H1027.81V503.078C1027.81 503.625 1027.81 504.035 1027.81 504.309C1027.83 504.564 1027.88 504.901 1027.97 505.32C1028.08 505.74 1028.23 506.049 1028.41 506.25C1028.59 506.432 1028.88 506.605 1029.26 506.77C1029.64 506.934 1030.11 507.016 1030.65 507.016C1031.91 507.016 1033.67 506.542 1035.93 505.594L1036.42 506.824C1034.12 507.863 1032.25 508.383 1030.79 508.383C1029.35 508.383 1028.22 507.973 1027.4 507.152C1026.96 506.715 1026.69 506.214 1026.58 505.648C1026.49 505.065 1026.44 504.208 1026.44 503.078V497.91H1024.58V496.625H1026.44V492.605ZM1038.8 491.129L1042.82 490.801V497.773C1043.37 497.372 1043.81 497.062 1044.16 496.844C1044.52 496.625 1045.02 496.406 1045.64 496.188C1046.27 495.951 1046.89 495.832 1047.5 495.832C1048.74 495.832 1049.72 496.251 1050.45 497.09C1051.18 497.91 1051.54 498.995 1051.54 500.344V506.715H1053.84V508H1047.85V506.715H1050.18V500.453C1050.18 499.469 1049.94 498.685 1049.46 498.102C1048.99 497.5 1048.35 497.199 1047.55 497.199C1046.18 497.199 1044.61 497.928 1042.82 499.387V506.715H1044.98V508H1039.16V506.715H1041.45V492.195L1038.91 492.414L1038.8 491.129ZM1069.18 505.238L1069.81 506.441C1067.49 507.736 1065.29 508.383 1063.19 508.383C1061.08 508.383 1059.44 507.781 1058.27 506.578C1057.12 505.357 1056.55 503.88 1056.55 502.148C1056.55 500.398 1057.14 498.913 1058.32 497.691C1059.51 496.452 1061.08 495.832 1063.03 495.832C1064.96 495.832 1066.47 496.388 1067.57 497.5C1068.68 498.612 1069.23 499.87 1069.23 501.273C1069.23 501.438 1069.23 501.674 1069.21 501.984C1069.19 502.294 1069.18 502.467 1069.18 502.504H1058.02C1058.04 502.941 1058.13 503.388 1058.3 503.844C1058.46 504.299 1058.72 504.792 1059.06 505.32C1059.41 505.831 1059.94 506.25 1060.65 506.578C1061.38 506.906 1062.23 507.07 1063.22 507.07C1064.75 507.07 1066.74 506.46 1069.18 505.238ZM1058.02 501.219H1067.76C1067.74 500.198 1067.32 499.268 1066.5 498.43C1065.7 497.573 1064.54 497.145 1063.03 497.145C1062.19 497.145 1061.43 497.299 1060.76 497.609C1060.1 497.901 1059.59 498.284 1059.23 498.758C1058.86 499.214 1058.58 499.651 1058.38 500.07C1058.2 500.471 1058.08 500.854 1058.02 501.219ZM1070.93 496.242H1074.05V497.199L1074.4 496.898C1075.04 496.26 1075.82 495.941 1076.75 495.941C1077.34 495.941 1077.88 496.096 1078.37 496.406C1078.86 496.698 1079.23 497.117 1079.49 497.664C1080.47 496.516 1081.51 495.941 1082.61 495.941C1083.08 495.941 1083.54 496.051 1084 496.27C1084.46 496.488 1084.8 496.771 1085.04 497.117C1085.31 497.518 1085.49 497.947 1085.59 498.402C1085.7 498.84 1085.75 499.56 1085.75 500.562V506.715H1087.31V508H1084.38V500.562C1084.38 500.034 1084.37 499.642 1084.36 499.387C1084.34 499.113 1084.27 498.785 1084.16 498.402C1084.07 498.02 1083.9 497.746 1083.64 497.582C1083.39 497.4 1083.05 497.309 1082.63 497.309C1081.7 497.309 1080.81 497.91 1079.95 499.113V506.715H1081.65V508H1078.59V500.453C1078.59 500.089 1078.58 499.815 1078.56 499.633C1078.56 499.451 1078.53 499.186 1078.48 498.84C1078.42 498.493 1078.33 498.229 1078.2 498.047C1078.09 497.865 1077.91 497.701 1077.66 497.555C1077.42 497.391 1077.13 497.309 1076.78 497.309C1075.85 497.309 1074.98 497.819 1074.16 498.84V506.715H1076.02V508H1070.93V506.715H1072.79V497.527H1070.93V496.242ZM1101.99 505.238L1102.62 506.441C1100.31 507.736 1098.1 508.383 1096 508.383C1093.89 508.383 1092.25 507.781 1091.08 506.578C1089.93 505.357 1089.36 503.88 1089.36 502.148C1089.36 500.398 1089.95 498.913 1091.14 497.691C1092.32 496.452 1093.89 495.832 1095.84 495.832C1097.77 495.832 1099.29 496.388 1100.38 497.5C1101.49 498.612 1102.05 499.87 1102.05 501.273C1102.05 501.438 1102.04 501.674 1102.02 501.984C1102 502.294 1101.99 502.467 1101.99 502.504H1090.84C1090.85 502.941 1090.95 503.388 1091.11 503.844C1091.27 504.299 1091.53 504.792 1091.88 505.32C1092.22 505.831 1092.75 506.25 1093.46 506.578C1094.19 506.906 1095.05 507.07 1096.03 507.07C1097.56 507.07 1099.55 506.46 1101.99 505.238ZM1090.84 501.219H1100.57C1100.55 500.198 1100.13 499.268 1099.31 498.43C1098.51 497.573 1097.35 497.145 1095.84 497.145C1095 497.145 1094.24 497.299 1093.57 497.609C1092.91 497.901 1092.4 498.284 1092.04 498.758C1091.67 499.214 1091.39 499.651 1091.19 500.07C1091.01 500.471 1090.89 500.854 1090.84 501.219ZM1115.69 495.695L1116.92 495.887C1116.76 496.743 1116.68 497.527 1116.68 498.238C1116.68 498.621 1116.72 499.195 1116.81 499.961L1115.61 500.098C1115.54 499.715 1115.45 499.405 1115.36 499.168C1115.27 498.931 1115.09 498.639 1114.82 498.293C1114.54 497.947 1114.11 497.691 1113.53 497.527C1112.95 497.345 1112.21 497.254 1111.32 497.254C1110.28 497.254 1109.45 497.445 1108.83 497.828C1108.23 498.211 1107.93 498.694 1107.93 499.277C1107.93 499.605 1107.98 499.888 1108.09 500.125C1108.2 500.362 1108.4 500.562 1108.69 500.727C1108.98 500.872 1109.26 501 1109.51 501.109C1109.77 501.201 1110.16 501.273 1110.69 501.328C1111.23 501.383 1111.67 501.428 1112 501.465C1112.33 501.483 1112.85 501.51 1113.56 501.547C1113.8 501.565 1114.01 501.583 1114.21 501.602C1114.43 501.62 1114.76 501.693 1115.2 501.82C1115.64 501.948 1116.01 502.112 1116.32 502.312C1116.63 502.495 1116.9 502.786 1117.14 503.188C1117.4 503.589 1117.52 504.062 1117.52 504.609C1117.52 505.831 1116.99 506.77 1115.91 507.426C1114.85 508.082 1113.65 508.41 1112.3 508.41C1110.97 508.41 1109.63 508.027 1108.28 507.262C1108.23 507.225 1108.18 507.207 1108.14 507.207C1107.98 507.207 1107.8 507.59 1107.6 508.355H1106.39C1106.5 507.736 1106.56 507.161 1106.56 506.633C1106.56 506.086 1106.5 505.184 1106.39 503.926L1107.6 503.789C1107.65 504.062 1107.7 504.299 1107.73 504.5C1107.79 504.701 1107.92 504.974 1108.12 505.32C1108.32 505.667 1108.56 505.958 1108.86 506.195C1109.15 506.414 1109.57 506.615 1110.11 506.797C1110.66 506.961 1111.29 507.043 1112 507.043C1112.36 507.043 1112.74 507.016 1113.12 506.961C1113.5 506.906 1113.93 506.806 1114.41 506.66C1114.9 506.514 1115.29 506.268 1115.58 505.922C1115.89 505.576 1116.05 505.156 1116.05 504.664C1116.05 504.263 1115.96 503.944 1115.77 503.707C1115.61 503.47 1115.32 503.297 1114.9 503.188C1114.48 503.06 1114.09 502.978 1113.72 502.941C1113.38 502.905 1112.85 502.878 1112.14 502.859C1108.35 502.714 1106.45 501.538 1106.45 499.332C1106.45 498.348 1106.9 497.527 1107.79 496.871C1108.7 496.215 1109.87 495.887 1111.29 495.887C1112.53 495.887 1113.58 496.151 1114.43 496.68C1114.6 496.844 1114.8 496.926 1115.04 496.926C1115.22 496.926 1115.38 496.707 1115.53 496.27L1115.69 495.695ZM1129.5 492.387L1128.98 502.723H1127.72L1127.23 492.387H1129.5ZM1128.35 505.102C1128.9 505.102 1129.35 505.266 1129.69 505.594C1130.06 505.922 1130.24 506.323 1130.24 506.797C1130.24 507.253 1130.06 507.645 1129.69 507.973C1129.33 508.301 1128.88 508.465 1128.35 508.465C1127.82 508.465 1127.38 508.301 1127.01 507.973C1126.65 507.645 1126.46 507.243 1126.46 506.77C1126.46 506.314 1126.65 505.922 1127.01 505.594C1127.38 505.266 1127.82 505.102 1128.35 505.102Z" fill="white"/>
<defs>
<linearGradient id="paint0_linear" x1="871.644" y1="642" x2="1052.2" y2="693.506" gradientUnits="userSpaceOnUse">
<stop stop-color="#6BF178" stop-opacity="0.911458"/>
<stop offset="0.119792" stop-color="#00CECB"/>
<stop offset="0.244792" stop-color="#E84855" stop-opacity="0.828125"/>
<stop offset="0.354167" stop-color="#F0AA85"/>
<stop offset="0.494792" stop-color="#FF5D8F"/>
<stop offset="0.625" stop-color="#A29BFE"/>
<stop offset="0.729167" stop-color="#EB8E82"/>
<stop offset="0.869792" stop-color="#F4F482"/>
<stop offset="1" stop-color="#F38375"/>
</linearGradient>
<linearGradient id="paint1_linear" x1="728.883" y1="319" x2="1184.64" y2="559.874" gradientUnits="userSpaceOnUse">
<stop stop-color="#6BF178" stop-opacity="0.911458"/>
<stop offset="0.119792" stop-color="#00CECB"/>
<stop offset="0.244792" stop-color="#E84855" stop-opacity="0.828125"/>
<stop offset="0.354167" stop-color="#F0AA85"/>
<stop offset="0.494792" stop-color="#FF5D8F"/>
<stop offset="0.625" stop-color="#A29BFE"/>
<stop offset="0.729167" stop-color="#EB8E82"/>
<stop offset="0.869792" stop-color="#F4F482"/>
<stop offset="1" stop-color="#F38375"/>
</linearGradient>
</defs>
</svg>
